<svg width="32" height="32" viewBox="0 0 32 32" fill="none" xmlns="http://www.w3.org/2000/svg">
  <path fill-rule="evenodd" clip-rule="evenodd" d="M4.82673 4.6314C4.72024 4.89291 4.67227 5.17714 4.68945 5.46388V26.4027C4.68583 26.4631 4.6851 26.5234 4.68721 26.5834C4.68638 26.607 4.68599 26.6306 4.68604 26.6541C4.68519 26.9497 4.75314 27.2398 4.88254 27.5022L16.2901 16.0947L4.82673 4.6314ZM5.31595 28.0116C5.86343 28.3624 6.58359 28.3377 7.10908 27.9269L20.5094 20.3141L16.7615 16.5661L5.31595 28.0116ZM21.1098 19.9717L25.6663 17.3813C27 16.6192 27 15.3808 25.6663 14.6282L21.2238 12.1038L17.2329 16.0947L21.1098 19.9717ZM20.6269 11.7579L16.7615 15.6233L5.20066 4.06252C5.75826 3.63601 6.53953 3.63524 7.09964 4.07305L20.6269 11.7579Z" fill="#5F6368"/>
</svg>
