
<svg width="1440" height="900" viewBox="0 0 1440 900" fill="none" xmlns="http://www.w3.org/2000/svg">
  <g clip-path="url(#clip0)">
    <g opacity="0.2">
      <path d="M1440 0H0V900H1440V0Z" fill="white"/>
      <path d="M1440.24 0H0.235107V900H1440.24V0Z" fill="white"/>
      <path fill-rule="evenodd" clip-rule="evenodd" d="M0 367L54.1136 367.221C77.9984 364.407 101.762 363 125.405 363C160.869 363 208.418 386.69 261.226 386.69C314.033 386.69 362.518 394.791 409.067 394.791C455.616 394.791 450.515 390.014 487.672 390.014C524.828 390.014 788.134 454.205 880.467 454.205C972.8 454.205 1187.94 394.791 1256.68 394.791C1302.5 394.791 1363.61 402.685 1440 418.472V900H0V367Z" fill="#F2F6FB"/>
      <path fill-rule="evenodd" clip-rule="evenodd" d="M0 393.792C20.5707 387.471 45.4623 384.311 74.6748 384.311C118.494 384.311 179.78 412.198 216.429 412.198C253.078 412.198 302.295 414.504 331.484 414.504C360.673 414.504 394.323 435.294 434.385 435.294C474.448 435.294 542.353 417.982 607.405 417.982C672.456 417.982 674.587 430.819 720 430.819C765.413 430.819 784.5 409.803 833.468 409.803C882.435 409.803 929.462 409.803 966.313 409.803C1003.16 409.803 1022.57 401.831 1078.37 401.831C1134.18 401.831 1163.7 414.504 1237.32 414.504C1310.93 414.504 1347.77 379 1440 379C1440 413.546 1440 587.212 1440 900H0V393.792Z" fill="#DAE2EB"/>
      <path fill-rule="evenodd" clip-rule="evenodd" d="M1355.06 436.638L1378.22 425.586V442.333H1407.94V454.576H1355.06V436.638Z" fill="#EEF3FC"/>
      <path fill-rule="evenodd" clip-rule="evenodd" d="M1407.94 442.333L1402.23 436.403H1377.89V442.333H1407.94Z" fill="#AFB6BF"/>
      <path fill-rule="evenodd" clip-rule="evenodd" d="M1355.06 454.576L1347.23 449.006V432.484L1355.06 436.403V454.576Z" fill="#E1E5ED"/>
      <path fill-rule="evenodd" clip-rule="evenodd" d="M1377.89 425.586L1371.06 422.539L1347.23 432.484L1355.06 436.403L1377.89 425.586Z" fill="white"/>
      <path fill-rule="evenodd" clip-rule="evenodd" d="M1113 488H1155C1157.89 479.843 1163.56 473.51 1172 469C1180.44 464.49 1190.85 462.992 1203.24 464.505V532.195H1113.24L1113 488Z" fill="#AAB5C8"/>
      <path fill-rule="evenodd" clip-rule="evenodd" d="M1112.9 488H1155C1158.13 480.074 1163.92 473.887 1172.37 469.44C1180.82 464.993 1191.03 463.3 1203 464.36L1177.73 456C1168.9 456 1161.4 457.537 1155.25 460.61C1149.1 463.683 1143.69 468.809 1139.02 475.99L1100 476L1112.9 488Z" fill="#F0F7FC"/>
      <path fill-rule="evenodd" clip-rule="evenodd" d="M1100 476L1100.24 519.001L1113.24 532.195L1113 488L1100 476Z" fill="#D7E2F3"/>
      <path d="M1259.71 500H1257.36V527.976H1259.71V500Z" fill="#BDC1C6"/>
      <path d="M1258.93 500.756C1268.02 500.756 1275.4 493.647 1275.4 484.878C1275.4 476.109 1268.02 469 1258.93 469C1249.83 469 1242.46 476.109 1242.46 484.878C1242.46 493.647 1249.83 500.756 1258.93 500.756Z" fill="#509E64"/>
      <path fill-rule="evenodd" clip-rule="evenodd" d="M1282 531.72C1279.05 526.827 1275.97 523.341 1272.77 521.261C1267.98 518.142 1261.16 516.455 1255.88 518.858C1252.37 520.46 1252.14 523.372 1255.19 527.593C1252.66 525.11 1249.89 523.869 1246.86 523.869C1242.32 523.869 1239.57 528.502 1240.06 531.72C1244.19 531.705 1258.17 531.705 1282 531.72Z" fill="white"/>
      <path fill-rule="evenodd" clip-rule="evenodd" d="M1346.14 900L1185.22 698.612C1169.6 673.434 1180.27 660.845 1217.22 660.845C1254.16 660.845 1328.42 660.845 1440 660.845V642.137H1330.57L1302.78 616.57C1295.08 610.205 1297.78 607.022 1310.9 607.022C1324.01 607.022 1367.05 607.022 1440 607.022V594H1292.92C1262.57 594.476 1256.62 603.93 1275.09 622.362C1283.59 630.852 1290.18 637.443 1294.84 642.137H1199.42C1166.29 642.608 1144.77 650.071 1134.87 664.527C1124.96 678.982 1130.17 699.753 1150.5 726.84L1271.58 900H1346.14Z" fill="white"/>
      <path fill-rule="evenodd" clip-rule="evenodd" d="M1440 560H1015.65C993.934 559.479 979.104 557.52 971.157 554.124C959.236 549.03 949.566 542.892 946.405 537.658C943.245 532.424 931.452 519 946.405 519C956.374 519 963.505 522.764 967.798 530.294C974.889 540.403 985.391 545.458 999.303 545.458C1013.22 545.458 1160.11 545.458 1440 545.458V560Z" fill="white"/>
      <path fill-rule="evenodd" clip-rule="evenodd" d="M225.72 900L396.955 695.92C405.599 683.991 400.646 678.027 382.096 678.027C363.545 678.027 236.258 678.027 0.235107 678.027V657.501H266.007L356.452 587.579H0.235107V567.413H72.3082L168.694 513.509C182.471 505.17 209.718 501 250.434 501C291.15 501 342.88 501 405.623 501C413.661 501.687 416.595 503.498 414.426 506.432C412.257 509.367 406.433 510.498 396.955 509.827H238.455C221.655 510.374 206.673 514.726 193.51 522.885C180.348 531.044 154.731 545.887 116.659 567.413H384.61C394.114 560.278 405.909 556.711 419.995 556.711C434.081 556.711 464.715 556.711 511.897 556.711C520.899 557.26 524.54 558.847 522.822 561.471C521.104 564.096 514.636 565.32 503.418 565.144H443.851C432.408 565.424 423.785 568.201 417.983 573.477C412.18 578.752 378.559 606.76 317.12 657.501H417.983C452.474 659.246 461.096 672.052 443.851 695.92C426.605 719.788 374.848 787.815 288.579 900H225.72Z" fill="white"/>
      <path fill-rule="evenodd" clip-rule="evenodd" d="M91.3374 827.35V792.226L218.5 771.043V827.35H91.3374Z" fill="#9EA8B4"/>
      <path fill-rule="evenodd" clip-rule="evenodd" d="M109.006 771.043L91.3374 792.226L218.5 771.043L232.382 751.195L109.006 771.043Z" fill="#838FA0"/>
      <path d="M162.875 797.005H100.237V813.572H162.875V797.005Z" stroke="white"/>
      <path fill-rule="evenodd" clip-rule="evenodd" d="M232.382 803.22V751.195L218.5 771.043V827.35L232.382 803.22Z" fill="#C4CCD3"/>
      <path d="M170.317 827.35V798.033H198.24V827.35" stroke="white"/>
      <path d="M184.279 798.033V827.35" stroke="white"/>
      <path d="M241.58 811.017H240.047V817.891H241.58V811.017Z" fill="#606E7B"/>
      <path d="M260.748 811.017H259.215V817.891H260.748V811.017Z" fill="#606E7B"/>
      <path d="M271.482 789.631H229.312V811.017H271.482V789.631Z" fill="#606E7B"/>
      <path d="M268.682 792.423H232.113V808.226H268.682V792.423Z" stroke="white"/>
      <path d="M91.3374 820.647H170.317" stroke="white"/>
      <path d="M91.3374 794.214L218.195 773.21" stroke="white"/>
      <path d="M198.24 820.647H218.5" stroke="white"/>
      <path fill-rule="evenodd" clip-rule="evenodd" d="M166.3 792.226L161.074 804.689V808.842H193.951V804.689L199.007 792.226H166.3Z" fill="#5C6978"/>
      <path fill-rule="evenodd" clip-rule="evenodd" d="M199.007 792.226V801.662L193.951 808.842V804.689L199.007 792.226Z" fill="#3E4451"/>
      <path fill-rule="evenodd" clip-rule="evenodd" d="M173.458 792.226L167.738 804.498V808.842H173.458V804.498L178.97 792.226H173.458Z" fill="#3E4451"/>
      <path fill-rule="evenodd" clip-rule="evenodd" d="M186.729 792.226L181.009 804.498V808.842H186.729V804.498L192.241 792.226H186.729Z" fill="#3E4451"/>
      <path d="M173.265 628C152.553 628 135.765 644.713 135.765 665.332C135.765 687.992 150.535 696.855 163.127 716.261C170.729 727.985 168.46 735 173.265 735C178.193 735 175.999 727.985 183.602 716.261C196.186 696.855 210.765 687.992 210.765 665.332C210.765 644.713 193.977 628 173.265 628Z" fill="#D93025"/>
      <mask id="mask0" mask-type="alpha" maskUnits="userSpaceOnUse" x="155" y="651" width="33" height="36">
        <path d="M170.165 663.6H166.565V651H162.965V663.6H159.365V651H155.765V663.6C155.765 667.416 158.753 670.512 162.515 670.746V687H167.015V670.746C170.777 670.512 173.765 667.416 173.765 663.6V651H170.165V663.6ZM178.765 658.2V672.6H183.265V687H187.765V651C182.797 651 178.765 655.032 178.765 658.2Z" fill="white"/>
      </mask>
      <g mask="url(#mask0)">
        <path d="M170.165 663.6H166.565V651H162.965V663.6H159.365V651H155.765V663.6C155.765 667.416 158.753 670.512 162.515 670.746V687H167.015V670.746C170.777 670.512 173.765 667.416 173.765 663.6V651H170.165V663.6ZM178.765 658.2V672.6H183.265V687H187.765V651C182.797 651 178.765 655.032 178.765 658.2Z" fill="white"/>
      </g>
      <path fill-rule="evenodd" clip-rule="evenodd" d="M685.699 900L692.109 706.84H546.341C527.235 708.267 522.458 702.464 532.011 689.431C541.564 676.398 553.464 660.925 567.711 643.01C571.978 638.346 578.844 636.014 588.309 636.014C597.773 636.014 685.953 636.014 852.848 636.014C863.76 635.759 871.526 638.906 876.145 645.453C880.764 652.001 891.643 667.585 908.78 692.204C915.803 701.961 912.119 706.84 897.729 706.84C883.34 706.84 830.521 706.84 739.272 706.84L749.7 900H685.699Z" fill="white"/>
      <path fill-rule="evenodd" clip-rule="evenodd" d="M625.359 624.339C595.275 624.339 578 592.934 578 573.918C578 554.903 584.939 538.348 584.939 521C584.939 503.652 585.373 494.502 585.373 478.449C585.373 462.396 591.656 427 626.424 427C661.193 427 669.057 459.524 669.057 476.088C669.057 492.652 668.955 505.196 668.955 515.345C668.955 525.494 675.496 546.426 675.496 568.066C675.496 589.707 655.444 624.339 625.359 624.339Z" fill="#329749"/>
      <path d="M627.172 539.917H623.374V658.166H627.172V539.917Z" fill="#B9C9C0"/>
      <path fill-rule="evenodd" clip-rule="evenodd" d="M617.668 583.002L619.28 581.373L626.8 588.974L625.189 590.603L617.668 583.002Z" fill="#B9C9C0"/>
      <path fill-rule="evenodd" clip-rule="evenodd" d="M633.101 552.644L634.712 554.273L626.117 562.96L624.506 561.331L633.101 552.644Z" fill="#B9C9C0"/>
      <path d="M772.143 550.231H665.54V670.889H772.143V550.231Z" fill="white"/>
      <path fill-rule="evenodd" clip-rule="evenodd" d="M691.804 581.741H701.846L678.672 640.148H668.629L691.804 581.741Z" fill="#DFE3EC"/>
      <path fill-rule="evenodd" clip-rule="evenodd" d="M703.391 581.741H713.434L690.259 640.148H680.217L703.391 581.741Z" fill="#DFE3EC"/>
      <path fill-rule="evenodd" clip-rule="evenodd" d="M757.286 593.269H770.598L739.878 670.889H726.566L757.286 593.269Z" fill="#DFE3EC"/>
      <path fill-rule="evenodd" clip-rule="evenodd" d="M720.979 593.269H722.703L691.983 670.889H690.259L720.979 593.269Z" fill="#DFE3EC"/>
      <path fill-rule="evenodd" clip-rule="evenodd" d="M726.386 593.269H728.111L697.391 670.889H695.667L726.386 593.269Z" fill="#DFE3EC"/>
      <path d="M771.643 582.241H739.426V639.648H771.643V582.241Z" stroke="#80868B"/>
      <path d="M698.256 582.241H666.04V639.648H698.256V582.241Z" stroke="#80868B"/>
      <path d="M739.198 582.241H698.484V670.389H739.198V582.241Z" stroke="#80868B"/>
      <path d="M772.143 640.148H739.698V670.889H772.143V640.148Z" fill="#AFBBD1"/>
      <path d="M697.984 640.148H665.54V670.889H697.984V640.148Z" fill="#AFBBD1"/>
      <path d="M772.143 468H665.54V551H772.143V468Z" fill="#CFD8E6"/>
      <path d="M761.6 494.63H676.082V528.213H761.6V494.63Z" fill="#BBC5D3" stroke="white"/>
      <path fill-rule="evenodd" clip-rule="evenodd" d="M665.539 551H772.143L779.867 581.741H657.814L665.539 551Z" fill="#CFD6E3"/>
      <path fill-rule="evenodd" clip-rule="evenodd" d="M665.539 551H688.119L682.534 581.741H657.814L665.539 551Z" fill="#CFD6E3"/>
      <path fill-rule="evenodd" clip-rule="evenodd" d="M708.762 551H688.119L682.534 581.741H706.481L708.762 551Z" fill="#F2F4F7"/>
      <path fill-rule="evenodd" clip-rule="evenodd" d="M708.761 551H730.132L731.201 581.741H706.481L708.761 551Z" fill="#CFD6E3"/>
      <path fill-rule="evenodd" clip-rule="evenodd" d="M750.848 551H730.133L731.201 581.741H755.148L750.848 551Z" fill="#F2F4F7"/>
      <g opacity="0.4">
        <path opacity="0.4" fill-rule="evenodd" clip-rule="evenodd" d="M665.647 592.5H682.534V607.102C678.414 609.492 674.294 610.687 670.174 610.687C668.665 610.687 667.156 610.527 665.647 610.206C665.621 606.365 665.621 600.463 665.647 592.5Z" fill="#606A7C"/>
        <path opacity="0.4" fill-rule="evenodd" clip-rule="evenodd" d="M682.534 592.5H706.481V607.102C702.49 609.492 698.499 610.687 694.508 610.687C690.517 610.687 686.525 609.492 682.534 607.102V592.5Z" fill="#606A7C"/>
        <path opacity="0.4" fill-rule="evenodd" clip-rule="evenodd" d="M706.481 592.5H731.201V607.102C727.081 609.492 722.961 610.687 718.841 610.687C714.721 610.687 710.601 609.492 706.481 607.102V592.5Z" fill="#606A7C"/>
        <path opacity="0.4" fill-rule="evenodd" clip-rule="evenodd" d="M731.201 592.5H755.148V607.102C751.157 609.492 747.165 610.687 743.174 610.687C739.183 610.687 735.192 609.492 731.201 607.102V592.5Z" fill="#606A7C"/>
        <path opacity="0.4" fill-rule="evenodd" clip-rule="evenodd" d="M755.148 592.5H772.143C772.087 600.974 772.051 606.876 772.035 610.206C770.526 610.527 769.017 610.687 767.508 610.687C763.388 610.687 759.268 609.492 755.148 607.102V592.5Z" fill="#606A7C"/>
      </g>
      <path fill-rule="evenodd" clip-rule="evenodd" d="M657.814 581.741H682.534V596.343C678.414 598.733 674.294 599.928 670.174 599.928C666.054 599.928 661.934 598.733 657.814 596.343V581.741Z" fill="#8E98A6"/>
      <path fill-rule="evenodd" clip-rule="evenodd" d="M682.534 581.741H706.481V596.343C702.49 598.733 698.499 599.928 694.508 599.928C690.517 599.928 686.525 598.733 682.534 596.343V581.741Z" fill="#AAB7C7"/>
      <path fill-rule="evenodd" clip-rule="evenodd" d="M706.481 581.741H731.201V596.343C727.081 598.733 722.961 599.928 718.841 599.928C714.721 599.928 710.601 598.733 706.481 596.343V581.741Z" fill="#8E98A6"/>
      <path fill-rule="evenodd" clip-rule="evenodd" d="M731.201 581.741H755.148V596.343C751.157 598.733 747.165 599.928 743.174 599.928C739.183 599.928 735.192 598.733 731.201 596.343V581.741Z" fill="#AAB7C7"/>
      <path fill-rule="evenodd" clip-rule="evenodd" d="M755.148 581.741H779.868V596.343C775.748 598.733 771.628 599.928 767.508 599.928C763.388 599.928 759.268 598.733 755.148 596.343V581.741Z" fill="#8E98A6"/>
      <path d="M772.143 468H665.54V472.611H772.143V468Z" fill="#FBBC04"/>
      <path d="M697.984 605.737H739.698" stroke="#80868B"/>
      <path d="M718.841 605.737V670.889" stroke="#80868B"/>
      <path d="M820.016 646.115C828.91 646.115 836.12 644.404 836.12 642.294C836.12 640.184 828.91 638.473 820.016 638.473C811.123 638.473 803.913 640.184 803.913 642.294C803.913 644.404 811.123 646.115 820.016 646.115Z" fill="#6F7578"/>
      <path d="M820.016 615.498V668.465" stroke="#6F7578" stroke-width="2"/>
      <path d="M820.016 668.465L826.77 678.194" stroke="#6F7578" stroke-width="2"/>
      <path d="M820.016 668.465L814.019 677.233" stroke="#6F7578" stroke-width="2"/>
      <path fill-rule="evenodd" clip-rule="evenodd" d="M821.016 585L860.068 617.119C847.299 619.964 834.53 621.387 821.761 621.387C808.992 621.387 796.222 619.964 783.453 617.119L821.016 585Z" fill="#F5BA08"/>
      <path d="M780 676.383C782.893 662.651 784.717 653.901 785.474 650.133C786.608 644.481 789.365 643.031 791.644 643.031C793.922 643.031 795.965 646.309 795.965 651.179C795.965 654.426 795.965 663.431 795.965 678.194" stroke="#6F7578" stroke-width="2" stroke-linecap="round" stroke-linejoin="round"/>
      <path d="M783.453 659.122H801.046V677.233" stroke="#6F7578" stroke-width="2" stroke-linecap="round" stroke-linejoin="round"/>
      <path d="M837.153 676.318L841.306 660.612H856.345" stroke="#6F7578" stroke-width="2" stroke-linecap="round" stroke-linejoin="round"/>
      <path d="M861.425 674.69C857.594 664.329 855.069 657.54 853.849 654.322C852.019 649.497 853.465 645.075 856.345 645.075C859.226 645.075 860.774 648.133 859.002 652.092C857.821 654.731 855.214 662.806 851.181 676.318" stroke="#6F7578" stroke-width="2" stroke-linecap="round" stroke-linejoin="round"/>
      <path fill-rule="evenodd" clip-rule="evenodd" d="M650.875 651.157L676.377 647L674.378 687.196L649 691.123L650.875 651.157Z" fill="#97A7BE"/>
      <path fill-rule="evenodd" clip-rule="evenodd" d="M675.442 648.166L651.928 651.999L654.428 693.198L677.824 689.578L675.442 648.166Z" fill="#606A7C" stroke="#DAE2EB" stroke-width="2"/>
      <path fill-rule="evenodd" clip-rule="evenodd" d="M553.087 709.978C548.462 705.025 545.342 700.489 543.728 696.369C541.308 690.19 541.144 685.739 545.088 683.404C549.032 681.07 554.738 689.035 556.006 692.702C554.185 680.974 556.475 673 562.019 673C567.564 673 572.445 679.154 569.292 691.489C573.539 681.391 579.969 677.519 583.881 681.038C587.793 684.558 580.921 702.203 571.47 709.978C564.194 710.007 558.067 710.007 553.087 709.978Z" fill="#DAE2EB"/>
      <path fill-rule="evenodd" clip-rule="evenodd" d="M833.235 710.793C835.744 704.244 839.011 698.641 843.036 693.985C849.073 687 855.977 683 862.134 683C868.292 683 871.057 690.98 868.623 695.436C875.223 689.476 882.493 688.964 885.211 691.475C887.929 693.985 894.551 702.89 893.003 710.793C878.799 711.069 858.876 711.069 833.235 710.793Z" fill="#DAE2EB"/>
      <path fill-rule="evenodd" clip-rule="evenodd" d="M480.138 829.677C463.291 829.677 453.617 812.382 453.617 801.91C453.617 791.438 460.649 782.624 460.649 773.07C460.649 763.516 457.746 758.174 457.746 749.334C457.746 740.493 461.264 721 480.735 721C500.206 721 504.61 738.912 504.61 748.033C504.61 757.155 501.715 764.16 501.715 769.749C501.715 775.339 508.216 786.769 508.216 798.687C508.216 810.605 496.986 829.677 480.138 829.677Z" fill="#84909F"/>
      <path d="M480.735 776.891H478.424V860.344H480.735V776.891Z" fill="white"/>
      <path fill-rule="evenodd" clip-rule="evenodd" d="M474.313 791.093L475.469 789.103L480.138 791.783L478.983 793.772L474.313 791.093Z" fill="white"/>
      <path fill-rule="evenodd" clip-rule="evenodd" d="M479.988 812.137L478.354 810.513L484.345 804.558L485.979 806.182L479.988 812.137Z" fill="white"/>
      <path fill-rule="evenodd" clip-rule="evenodd" d="M461.236 867.353C458.489 865.543 455.865 863.207 453.365 860.344C449.616 856.05 451.334 851.953 454.534 849.726C457.734 847.498 464.83 850.968 467.014 858.539C466.558 845.965 466.46 837.956 474.313 837.956C482.167 837.956 483.598 847.703 482.167 853.632C486.88 848.355 491.539 846.539 494.397 848.974C497.256 851.409 496.804 856.989 493.104 860.344C490.637 862.581 487.843 864.917 484.722 867.353H461.236Z" fill="#EDA906"/>
      <path d="M322.947 456.195H320.594V484.17H322.947V456.195Z" fill="#BDC1C6"/>
      <path d="M322.163 456.951C331.259 456.951 338.634 449.842 338.634 441.073C338.634 432.304 331.259 425.195 322.163 425.195C313.067 425.195 305.692 432.304 305.692 441.073C305.692 449.842 313.067 456.951 322.163 456.951Z" fill="#429C58"/>
      <path fill-rule="evenodd" clip-rule="evenodd" d="M302.275 487.01C300.889 484.877 300.889 483.308 302.275 482.305C304.354 480.801 306.902 481.563 309.001 482.693C309.504 479.53 310.919 475.97 314.696 475.97C318.472 475.97 320.854 476.648 322.947 478.633C324.533 475.033 326.995 472.829 330.282 472.829C333.569 472.829 341.006 479.425 341.006 487.01C332.816 487.025 319.905 487.025 302.275 487.01Z" fill="#429C58"/>
      <path fill-rule="evenodd" clip-rule="evenodd" d="M205.235 487.993V456.338L232.698 438.806L258.921 456.338V487.993H205.235Z" fill="#BDC8DA"/>
      <path fill-rule="evenodd" clip-rule="evenodd" d="M258.729 487.993L281.987 477.812V447.832L258.729 456.337V487.993Z" fill="#858F9E"/>
      <path fill-rule="evenodd" clip-rule="evenodd" d="M266.838 441.286V422.527L274.518 414.195L281.987 422.527V447.832H266.838V441.286Z" fill="#B9C3D4"/>
      <path fill-rule="evenodd" clip-rule="evenodd" d="M232.507 438.806L255.992 431.675L281.988 447.832L258.729 456.338L232.507 438.806Z" fill="white"/>
      <path fill-rule="evenodd" clip-rule="evenodd" d="M210.323 490.028C209.831 488.942 209.233 487.608 208.531 486.025C207.477 483.65 207.393 480.671 208.531 480.224C209.669 479.776 210.695 481.268 211.165 482.572C211.478 483.441 211.885 485.079 212.386 487.487C212.897 484.759 213.313 482.618 213.634 481.064C214.116 478.732 215.179 477.001 216.496 477.384C217.814 477.767 217.878 479.556 217.427 481.064C217.125 482.069 216.56 483.723 215.73 486.025C218.195 483.889 219.929 482.528 220.932 481.943C222.437 481.064 223.983 480.41 224.726 481.491C225.469 482.572 224.843 484.057 222.118 486.025C220.301 487.337 218.172 488.671 215.73 490.028H210.323Z" fill="white"/>
      <path fill-rule="evenodd" clip-rule="evenodd" d="M33.2351 481.195V456.044L39.6982 448.195L46.2089 456.044V464.695H83.2351V481.195H33.2351Z" fill="white"/>
      <path d="M989.899 779.879C1012.36 779.879 1030.56 761.773 1030.56 739.439C1030.56 717.105 1012.36 699 989.899 699C967.441 699 949.235 717.105 949.235 739.439C949.235 761.773 967.441 779.879 989.899 779.879Z" fill="#509E64"/>
      <path d="M991.433 747.832H988.364V782.168H991.433V747.832Z" fill="white"/>
      <path fill-rule="evenodd" clip-rule="evenodd" d="M1001.06 750.067L1003.23 752.225L990.751 764.635L988.581 762.476L1001.06 750.067Z" fill="white"/>
      <path d="M991.433 782.168H988.364V827.185H991.433V782.168Z" fill="#99A0A9"/>
      <path fill-rule="evenodd" clip-rule="evenodd" d="M984.201 830.679C987.947 824.486 991.849 820.073 995.905 817.442C1001.99 813.494 1010.64 811.358 1017.33 814.4C1021.8 816.428 1022.09 820.113 1018.21 825.455C1021.42 822.313 1024.94 820.742 1028.78 820.742C1034.54 820.742 1038.04 826.606 1037.41 830.679C1032.17 830.659 1014.44 830.659 984.201 830.679Z" fill="white"/>
      <path fill-rule="evenodd" clip-rule="evenodd" d="M1293.2 783.42V720.285C1299.72 717.45 1308.72 716.032 1320.21 716.032C1348.21 715.374 1369.54 749.726 1419.08 749.726C1419.02 763.622 1419.02 774.853 1419.08 783.42H1293.2Z" fill="#B0BAC8"/>
      <path d="M1293.2 723.333C1299.72 720.497 1308.72 719.079 1320.21 719.079C1348.21 718.422 1369.54 752.774 1419.08 752.774" stroke="white"/>
      <path fill-rule="evenodd" clip-rule="evenodd" d="M1275.23 696.136L1293.2 720.285C1299.72 717.45 1308.72 716.032 1320.21 716.032C1348.21 715.374 1369.54 749.726 1419.08 749.726C1408.77 738.481 1404.3 732.829 1397.98 724.769C1353.41 724.769 1321.83 692.195 1303.63 692.195C1291.5 692.195 1282.04 693.508 1275.23 696.136Z" fill="#C3CEDB"/>
      <path fill-rule="evenodd" clip-rule="evenodd" d="M1275.23 696.136V758.652L1293.2 783.42V720.285L1275.23 696.136Z" fill="#8D97A4"/>
      <path d="M1312.63 783.42V739.778H1345.47V783.42" stroke="white"/>
      <path d="M1329.05 739.778V783.42" stroke="white"/>
      <path fill-rule="evenodd" clip-rule="evenodd" d="M124.555 104.208C92.4386 104.208 74.0595 105.735 63.9836 105.735C53.9078 105.735 46.2351 100.962 46.2351 96.0059C46.2351 91.0502 54.4085 85.9242 69.2645 85.9242C84.1205 85.9242 125.874 91.4232 139.521 91.4232C153.168 91.4232 199.852 77 213.801 77C227.751 77 235.198 82.5209 233.968 91.4232C244.947 86.8135 253.47 84.6471 261.988 84.6471C270.506 84.6471 276.769 96.4767 271.004 101.785C265.239 107.094 243.355 109 233.968 109C224.581 109 156.671 104.208 124.555 104.208Z" fill="#EFF3FD"/>
      <path fill-rule="evenodd" clip-rule="evenodd" d="M127.191 172L115 163C119.209 163.768 122.008 164.71 123.398 165.826C124.788 166.942 125.833 168.344 126.532 170.032C127.096 168.684 128.077 167.282 129.475 165.826C130.874 164.37 133.382 163.428 137 163L127.191 172Z" fill="#A5A4AB"/>
      <path fill-rule="evenodd" clip-rule="evenodd" d="M384.772 43C344.09 43 312.639 36.4494 299.699 36.4494C286.758 36.4494 267.235 46.2588 267.235 36.4494C267.235 26.64 282.702 16.1431 306.34 16.1431C329.978 16.1431 344.572 27.5908 388.364 27.5908C432.156 27.5908 458.257 10 492.895 10C527.532 10 537.235 16.5506 537.235 26.5C537.235 36.4494 516.141 39.9538 485.835 39.9538C455.529 39.9538 425.455 43 384.772 43Z" fill="#EFF3FD"/>
      <path fill-rule="evenodd" clip-rule="evenodd" d="M1078.82 161C1032.48 161 1002.23 154.994 1002.23 147.79C1002.23 140.586 1028.49 140.259 1040.53 134.77C1052.57 129.281 1066.2 116 1084.77 116C1103.33 116 1140.86 128.096 1181.84 128.096C1222.82 128.096 1277.38 123.477 1295.53 123.477C1313.67 123.477 1310.7 138.5 1321.07 138.5C1331.44 138.5 1335.9 147.131 1333.67 152.668C1331.44 158.204 1314.86 161 1295.53 161C1276.19 161 1225.24 152.668 1184.26 152.668C1143.28 152.668 1125.16 161 1078.82 161Z" fill="#EFF3FD"/>
      <path fill-rule="evenodd" clip-rule="evenodd" d="M1232.66 345L1223.23 336C1226.49 336.768 1228.65 337.71 1229.72 338.826C1230.8 339.942 1231.61 341.344 1232.15 343.032C1232.58 341.684 1233.34 340.282 1234.42 338.826C1235.5 337.37 1237.44 336.428 1240.23 336L1232.66 345Z" fill="#A5A4AB"/>
      <path fill-rule="evenodd" clip-rule="evenodd" d="M1201.43 263L1189.23 254C1193.44 254.768 1196.24 255.71 1197.63 256.826C1199.02 257.942 1200.07 259.344 1200.77 261.032C1201.33 259.684 1202.31 258.282 1203.71 256.826C1205.11 255.37 1207.62 254.428 1211.23 254L1201.43 263Z" fill="#A5A4AB"/>
    </g>
  </g>
  <defs>
    <clipPath id="clip0">
      <rect width="1440" height="900" fill="white"/>
    </clipPath>
  </defs>
</svg>
