<svg width="32" height="32" viewBox="0 0 32 32" fill="none" xmlns="http://www.w3.org/2000/svg">
  <path d="M13.3333 17.3333C15.5424 17.3333 17.3333 15.5424 17.3333 13.3333C17.3333 11.1241 15.5424 9.33325 13.3333 9.33325C11.1241 9.33325 9.33325 11.1241 9.33325 13.3333C9.33325 15.5424 11.1241 17.3333 13.3333 17.3333Z" fill="#5F6368"/>
  <path d="M25.3333 18.6666V7.99992C25.3333 6.53325 24.1333 5.33325 22.6666 5.33325H3.99992C2.53325 5.33325 1.33325 6.53325 1.33325 7.99992V18.6666C1.33325 20.1333 2.53325 21.3333 3.99992 21.3333H22.6666C24.1333 21.3333 25.3333 20.1333 25.3333 18.6666ZM19.9999 18.6666H6.66658C6.66658 17.1999 5.46659 15.9999 3.99992 15.9999V10.6666C5.46659 10.6666 6.66658 9.46659 6.66658 7.99992H19.9999C19.9999 9.46659 21.1999 10.6666 22.6666 10.6666V15.9999C21.1999 15.9999 19.9999 17.1999 19.9999 18.6666ZM30.6666 9.33325V23.9999C30.6666 25.4666 29.4666 26.6666 27.9999 26.6666H5.33325V23.9999H27.9999V9.33325H30.6666Z" fill="#5F6368"/>
</svg>
