<svg width="160" height="40" viewBox="0 0 160 40" fill="none" xmlns="http://www.w3.org/2000/svg">
  <path d="M65.9602 26.5423C63.5073 29.7231 59.7212 31.5941 55.7217 31.6209C48.8961 31.6209 43.4569 26.7294 43.4569 20.2608C43.4835 17.1335 44.79 14.1665 47.0563 12.0282C49.3227 9.8898 52.3622 8.76717 55.4818 8.90081C59.4812 8.92754 63.2673 10.7986 65.7203 13.9794L61.1876 17.2137C59.9878 15.209 57.8281 13.9527 55.5084 13.926C52.0156 13.926 49.1627 16.7593 49.136 20.2608C49.2427 23.8426 52.2023 26.6492 55.7751 26.5957C58.0947 26.569 60.2277 25.4196 61.5609 23.5218L65.9602 26.5423Z" fill="#63666A"/>
  <path d="M74.1715 0H68.4922V31.1399H74.1715V0Z" fill="#63666A"/>
  <path d="M89.2101 26.7829C92.8896 26.8096 95.9025 23.9228 96.0358 20.2341C95.8492 16.5989 92.8363 13.7389 89.2101 13.7389C85.584 13.7389 82.5711 16.5989 82.3844 20.2341C82.5177 23.9228 85.5573 26.8363 89.2101 26.7829ZM89.2368 8.87409C92.383 8.71372 95.4492 9.83636 97.7422 11.9747C100.062 14.1131 101.395 17.0801 101.502 20.2341C101.395 23.3882 100.035 26.3552 97.7422 28.4936C95.4226 30.6319 92.3563 31.7546 89.2368 31.5942C82.4111 31.5942 76.9185 26.6492 76.9185 20.2341C76.8919 13.8458 82.3578 8.87409 89.2368 8.87409Z" fill="#63666A"/>
  <path d="M100.569 9.32866H107.234L112.647 20.9827L118.486 9.32866H124.672L112.647 32.4763L100.569 9.32866Z" fill="#63666A"/>
  <path d="M140.829 17.2139C139.95 15.0755 137.843 13.6589 135.55 13.6856C133.151 13.6589 130.938 15.0221 129.924 17.2139H140.829ZM144.482 28.6808C142.109 30.6053 139.15 31.6478 136.11 31.6211C129.284 31.6211 123.792 26.6761 123.792 20.261C123.792 17.1604 125.045 14.1935 127.285 12.0551C129.524 9.91674 132.537 8.76738 135.603 8.90102C138.643 8.79411 141.576 9.9702 143.709 12.1086C145.842 14.2469 146.989 17.2139 146.882 20.2343V21.8648H129.418C130.298 24.805 132.991 26.783 136.057 26.7563C137.95 26.8098 139.763 26.0346 141.043 24.6179L144.482 28.6808ZM149.628 18.8978C149.628 13.6856 153.601 9.32869 160 9.32869V14.434C158.64 14.3538 157.334 14.8884 156.427 15.9041C155.521 16.8931 155.094 18.2563 155.254 19.5928V31.1399H149.628V18.8978Z" fill="#63666A"/>
  <path d="M17.647 10.184C17.6737 6.6023 15.5406 3.36803 12.2344 1.9781C8.95492 0.588167 5.14213 1.33659 2.60917 3.84916C0.0761993 6.36173 -0.697023 10.184 0.662781 13.4985C2.02258 16.813 5.24879 18.978 8.8216 18.978H17.647V10.184ZM20.2066 10.184C20.18 6.6023 22.313 3.36803 25.6192 1.9781C28.8987 0.588167 32.7115 1.33659 35.2445 3.84916C37.7774 6.36173 38.5506 10.184 37.1908 13.4985C35.831 16.813 32.6048 18.978 29.032 18.978H20.2066V10.184ZM20.2066 30.3113C20.18 33.8931 22.313 37.1273 25.6192 38.5173C28.9254 39.9072 32.7115 39.1588 35.2445 36.6462C37.7774 34.1337 38.5506 30.3113 37.1908 26.9969C35.831 23.6824 32.6048 21.5173 29.032 21.5173H20.2066V30.3113ZM8.84827 36.6195C12.3411 36.6195 15.1674 33.8129 15.194 30.3113V24.0032H8.84827C5.3821 24.0032 2.55584 26.8365 2.55584 30.3113C2.55584 33.7862 5.35544 36.6195 8.84827 36.6195ZM17.647 30.3113C17.6737 33.8931 15.5406 37.1273 12.2344 38.5173C8.92826 39.9072 5.14213 39.1588 2.60917 36.6462C0.0761993 34.1337 -0.697023 30.3113 0.662781 26.9969C2.02258 23.6824 5.24879 21.5173 8.8216 21.5173H17.647V30.3113Z" fill="#43B02A"/>
</svg>