
<svg width="160" height="40" viewBox="0 0 160 40" fill="none" xmlns="http://www.w3.org/2000/svg">
  <g clip-path="url(#clip0)">
    <path fill-rule="evenodd" clip-rule="evenodd" d="M6.68382 2.81544e-07H33.3162C35.0891 -0.000513962 36.7898 0.703444 38.0436 1.95696C39.2975 3.21047 40.002 4.91082 40.002 6.68382V33.3142C40.002 37.0067 37.0085 40 33.3162 40H6.68382C2.99213 39.9989 0 37.006 0 33.3142V6.68382C0 2.99244 2.99244 2.81544e-07 6.68382 2.81544e-07ZM30.6244 32.7282C31.7895 32.7282 32.734 31.7836 32.734 30.6185L32.7282 9.38333C32.7282 8.21826 31.7836 7.27378 30.6185 7.27378H9.38527C8.82545 7.27378 8.28858 7.49631 7.89291 7.89235C7.49724 8.28838 7.27522 8.82545 7.27573 9.38527V30.6185C7.27573 31.7836 8.2202 32.7282 9.38527 32.7282H30.6244Z" fill="#3E4348"/>
    <path d="M15.7568 25.4233C15.0918 25.418 14.5555 24.8775 14.5555 24.2124V15.7353C14.554 15.4131 14.6809 15.1036 14.9082 14.8752C15.1354 14.6469 15.4443 14.5185 15.7665 14.5185H24.2553C24.5773 14.519 24.8858 14.6475 25.1131 14.8758C25.3402 15.1041 25.4673 15.4133 25.4662 15.7353V24.2104C25.4673 24.5324 25.3402 24.8416 25.1131 25.0698C24.8858 25.2982 24.5773 25.4267 24.2553 25.4273L15.7568 25.4233Z" fill="#3E4348"/>
    <path d="M60.3561 18.2175C59.1179 17.8798 57.9458 17.5615 57.0356 17.1559C55.351 16.4029 54.567 15.3588 54.567 13.8722C54.567 11.0621 57.2839 9.79674 59.9894 9.79674C62.5607 9.79674 64.8061 10.8602 66.3141 12.7893L66.4168 12.9213L68.5905 11.2212L68.4858 11.0892C66.481 8.53916 63.5118 7.14185 60.1212 7.14185C57.8643 7.14185 55.7954 7.75123 54.2992 8.85938C52.6147 10.0917 51.7258 11.8791 51.7258 14.012C51.7258 18.9706 56.395 20.1795 60.1485 21.1518C63.9465 22.1533 66.2734 22.914 66.2734 25.8095C66.2734 28.6604 63.9678 30.5022 60.4007 30.5022C58.6367 30.5022 55.3705 30.0346 53.3172 26.8984L53.2221 26.7507L50.9359 28.4062L51.0252 28.5402C52.9659 31.4784 56.3156 33.1649 60.2261 33.1649C65.5378 33.1649 69.1087 30.1664 69.1087 25.7067C69.1087 20.6026 64.253 19.2809 60.3561 18.2175Z" fill="#3E4348"/>
    <path fill-rule="evenodd" clip-rule="evenodd" d="M86.4356 17.1869V14.5029H88.9915V39.9962H86.4356V30.0364C84.9762 32.0373 82.7871 33.1318 80.2136 33.1318C75.3542 33.1318 71.9578 29.2407 71.9578 23.6224C71.9578 18.004 75.3618 14.0818 80.2136 14.0818C82.7696 14.0818 84.9587 15.1822 86.4356 17.1869ZM74.6516 23.5913C74.6516 28.7924 77.6305 30.6458 80.4193 30.6458L80.4251 30.6476C84.0756 30.6476 86.4356 27.8531 86.4356 23.5913C86.4356 19.3295 84.0718 16.5737 80.4193 16.5737C76.1673 16.5737 74.6516 20.1989 74.6516 23.5913Z" fill="#3E4348"/>
    <path d="M105.889 14.5029V24.5655C105.889 28.088 103.477 30.6458 100.154 30.6458C97.3946 30.6458 96.0517 29.0078 96.0517 25.6407V14.5029H93.4957V26.1627C93.4957 30.5293 95.8692 33.1356 99.8437 33.1356C102.32 33.1356 104.447 32.0858 105.891 30.1664V32.7204H108.447V14.5029H105.889Z" fill="#3E4348"/>
    <path fill-rule="evenodd" clip-rule="evenodd" d="M113.26 16.4165C115.144 14.9357 117.702 14.0876 120.274 14.0876C124.336 14.0876 126.759 16.1079 126.752 19.4964V32.7244H124.194V30.704C122.903 32.3206 121.036 33.1397 118.634 33.1397C114.719 33.1397 112.286 30.9989 112.286 27.5562C112.286 23.0789 116.505 22.3764 118.302 22.0775C118.595 22.0291 118.898 21.9826 119.2 21.9358H119.2L119.211 21.9342C121.667 21.5562 124.202 21.1662 124.202 19.0831C124.202 16.7251 121.141 16.5426 120.204 16.5426C118.548 16.5426 116.21 17.0336 114.62 18.4115L114.475 18.5376L113.14 16.5116L113.26 16.4165ZM114.954 27.4126C114.954 30.3315 117.702 30.6476 118.884 30.6476H118.886C121.456 30.6476 124.206 29.2776 124.2 25.4273V22.7916C122.953 23.5791 121.179 23.8867 119.596 24.1611L119.569 24.1658L118.775 24.3075C116.241 24.7771 114.954 25.3826 114.954 27.4126Z" fill="#3E4348"/>
    <path d="M141.56 14.8464C140.952 14.4137 139.995 14.1555 138.998 14.1555C136.948 14.1825 135.03 15.1706 133.818 16.824V14.4952H131.262V32.7107H133.818V22.9684C133.818 18.6484 136.246 16.7134 138.65 16.7134C139.354 16.704 140.051 16.8518 140.69 17.1462L140.863 17.2374L141.672 14.9202L141.56 14.8464Z" fill="#3E4348"/>
    <path fill-rule="evenodd" clip-rule="evenodd" d="M142.308 23.6611C142.308 18.0254 145.823 14.0876 150.848 14.0876C155.688 14.0876 159.07 17.5829 159.061 22.5956C159.059 23.0315 159.035 23.4667 158.989 23.8998L158.973 24.0493H145C145.064 28.0607 147.478 30.6476 151.183 30.6476C153.306 30.6476 155.146 29.7842 156.363 28.214L156.474 28.0706L158.325 29.72L158.222 29.8442C156.992 31.3444 154.748 33.1338 151.042 33.1338C145.821 33.1338 142.308 29.328 142.308 23.6611ZM150.778 16.5407C147.655 16.5407 145.441 18.5958 145.095 21.7962H156.359C156.138 19.2227 154.566 16.5407 150.778 16.5407Z" fill="#3E4348"/>
  </g>
  <defs>
    <clipPath id="clip0">
      <rect width="160" height="40" fill="white"/>
    </clipPath>
  </defs>
</svg>
